<svg width="20" height="20" viewBox="0 0 20 20" fill="none" xmlns="http://www.w3.org/2000/svg">
<path d="M4.16917 16.6667C4.16917 17.5858 4.91667 18.3333 5.83584 18.3333H14.1692C15.0883 18.3333 15.8358 17.5858 15.8358 16.6667V6.66666H17.5025V5H14.1692V3.33333C14.1692 2.41416 13.4217 1.66666 12.5025 1.66666H7.5025C6.58334 1.66666 5.83584 2.41416 5.83584 3.33333V5H2.5025V6.66666H4.16917V16.6667ZM7.5025 3.33333H12.5025V5H7.5025V3.33333ZM6.66917 6.66666H14.1692L14.17 16.6667H5.83584V6.66666H6.66917Z" fill="#ED4C5C"/>
<path d="M7.5025 8.33334H9.16917V15H7.5025V8.33334ZM10.8358 8.33334H12.5025V15H10.8358V8.33334Z" fill="#ED4C5C"/>
</svg>
