<svg width="35" height="35" viewBox="0 0 35 35" fill="none" xmlns="http://www.w3.org/2000/svg">
<path d="M30.0781 19.1953L34.1797 23.2422L15.9687 31.9375C15.9687 31.9375 13.5625 33.0313 12.414 31.2813C7.92967 24.2813 30.0781 19.1953 30.0781 19.1953Z" fill="#962C2C"/>
<path d="M15.5312 26.8516C15.5312 26.8516 12.0312 28.0547 12.6875 30.4062C13.3437 32.8125 16.1328 31.3359 16.1328 31.3359L33.4141 23.2969C33.4141 23.2969 32.4297 20.7266 34.1797 19.0312L15.5312 26.8516Z" fill="#D9E3E8"/>
<path d="M18.4297 2.73438L35 18.8672L15.4219 26.5234L2.84375 6.94531L18.4297 2.73438Z" fill="#FFCE31"/>
<path d="M18.9219 6.39844L22.0938 9.78906L10.2266 14.0547L7.4375 9.73437L18.9219 6.39844Z" fill="white"/>
<path d="M33.3594 20.7813L21.8203 25.4844L33.1953 20.2891L33.3594 20.7813Z" fill="#94989B"/>
<path d="M33.1953 22.2031L20.8906 27.2891L32.9766 21.6562L33.1953 22.2031Z" fill="#94989B"/>
<path d="M33.3047 22.9688L17.6094 29.8047L33.0859 22.4766L33.3047 22.9688Z" fill="#94989B"/>
<path d="M12.4141 31.2812C10.5 27.2891 15.4219 26.5781 15.4219 26.5781L2.84375 6.94531C2.84375 6.94531 0 6.89063 0 9.84375C0 11.0469 0.546875 11.9766 0.546875 11.9766L12.4141 31.2812Z" fill="#FF8736"/>
</svg>
