<svg width="35" height="35" viewBox="0 0 35 35" fill="none" xmlns="http://www.w3.org/2000/svg">
<path d="M16.4609 8.64063L17.8281 7.54688L18.7578 12.6875L15.4219 13.2891L16.4609 8.64063Z" fill="#FFE1BD"/>
<path d="M14.6562 11.4297C15.75 11.8672 15.4219 13.2891 15.4219 13.2891C16.7891 13.0156 17.2266 10.2266 16.9531 8.58594L14.6562 11.4297Z" fill="#E6B796"/>
<path d="M16.2422 1.80469L10.7187 4.92188C10.2266 6.45312 10.8828 7.05469 10.9375 7.65625C10.9922 7.92969 10.5547 8.47656 10.2812 8.80469C9.73436 9.46094 10.8828 9.73438 11.2656 9.57031C11.6484 10.1172 10.9375 10.6094 12.6328 9.95312C12.6328 9.95312 10.9922 11.0469 12.3047 11.1562C12.3047 11.8672 12.4141 13.2891 15.8594 11.2109C16.8984 10.6094 16.9531 8.58594 16.9531 8.58594L18.7578 7.92969L16.2422 1.80469Z" fill="#FFE1BD"/>
<path d="M11.9766 2.02343C15.6406 -3.33786e-06 18.1016 1.64062 18.6484 2.46093C20.0703 4.64843 19.6875 7.49218 18.2656 9.78906C18.2656 9.78906 17.3359 9.57031 17.0078 8.53125C17.0078 8.53125 18.0469 8.80468 18.1016 6.67187C18.1563 4.86718 16.1328 4.32031 15.6406 6.83593L15.3672 6.89062C14.6563 5.79687 15.3125 4.15625 13.8359 3.9375C12.5781 3.77343 10.6094 5.19531 10.6094 5.19531C10.1172 4.59375 10.5 2.84375 11.9766 2.02343Z" fill="#594640"/>
<path d="M12.4141 7.38282C12.4688 7.76563 12.3047 8.09376 12.086 8.14844C11.8125 8.20313 11.7031 7.9297 11.6484 7.54688C11.5938 7.16407 11.5938 6.83595 11.8672 6.83595C12.086 6.78126 12.3594 7.00001 12.4141 7.38282Z" fill="#664E27"/>
<path d="M16.2422 7.21875C16.1328 6.50781 16.625 5.74219 17.2265 5.63281C17.2265 5.63281 16.3515 6.67187 16.8437 7.76562C16.789 7.76562 16.2969 7.71094 16.2422 7.21875Z" fill="#E6B796"/>
<path d="M13.2344 9.67969C13.2344 9.67969 12.6328 10.3359 12.3594 10.5C11.8672 10.8828 11.7578 10.7188 12.0312 10.4453C12.25 10.2266 12.6328 9.95313 12.6328 9.95313L13.2344 9.67969Z" fill="#664E27"/>
<path d="M28.1094 29.2578C27.8906 30.3516 28.6016 31.3906 29.6953 31.6094L30.625 26.9609C30.7344 26.4141 30.3516 25.9219 29.8047 25.8125L28.8203 25.6484L28.1094 29.2578Z" fill="#D3976E"/>
<path d="M8.80469 31.4453C7.71094 31.2266 6.67188 31.9375 6.45312 33.0312L11.1562 33.9062C11.7031 34.0156 12.25 33.6328 12.3594 33.1406L12.5781 32.1562L8.80469 31.4453Z" fill="#D3976E"/>
<path d="M26.7969 15.75L24.9922 12.0313C24.7734 11.5938 24.2813 11.375 23.7891 11.4297L19.6875 11.5938C19.0859 11.5938 18.5938 12.0859 18.6484 12.6875C18.6484 13.2891 19.1953 13.7266 19.7969 13.7266L23.4063 13.6172L24.8828 16.7344L26.7969 15.75Z" fill="#3B946F"/>
<path d="M25.7578 15.9687L24.7734 16.3516C24.4453 16.4609 24.2266 16.8437 24.3906 17.2266L24.5547 17.7187C24.6641 17.9922 24.8828 18.1562 25.1563 18.1562C25.4297 18.7578 25.9766 19.5234 27.1797 19.0859C27.3984 19.0312 28.4922 18.6484 28 17.3359C27.2344 15.4219 27.2344 15.4219 25.7578 15.9687Z" fill="#FFE1BD"/>
<path d="M25.375 18.1016C26.1953 17.7734 25.7578 16.8984 25.5391 16.2969C25.4844 16.1875 25.375 16.2422 25.375 16.3516C25.5391 16.8437 26.0313 17.6641 25.3203 17.9922C25.2656 17.9922 25.3203 18.1016 25.375 18.1016Z" fill="#E6B796"/>
<path d="M23.625 24.6094L21.6562 21.6016H14.7656L10.1172 24.7734L8.80469 31.3906L12.5234 32.1562L13.5625 27.0156L18.2656 24.7188L21.3281 27.9453L28.1094 29.2578L28.8203 25.5937L23.625 24.6094Z" fill="#3E4347"/>
<path d="M21.6563 21.6016L19.5234 11.5938L14.1641 12.5781C13.9453 12.6328 13.7266 12.7422 13.5625 12.9062L11.1016 15.4766L7.82031 14.3281L7.10938 16.3516L11.1016 17.7188C11.5938 17.8828 12.0859 17.7188 12.3594 17.2812L14.3281 15.2031L14.7656 21.6016H21.6563Z" fill="#47B892"/>
<path d="M7.71092 15.4766L8.14842 14.5469C8.31248 14.2188 8.14842 13.7813 7.8203 13.6719L7.32811 13.4531C7.05467 13.3438 6.78124 13.3984 6.61717 13.5625C5.96092 13.3438 5.08592 13.1797 4.53905 14.3281C4.42967 14.4922 3.93749 15.5313 5.1953 16.1328C7.05467 16.8984 7.05467 16.8984 7.71092 15.4766Z" fill="#FFE1BD"/>
</svg>
