<svg width="35" height="35" viewBox="0 0 35 35" fill="none" xmlns="http://www.w3.org/2000/svg">
<g clip-path="url(#clip0)">
<path d="M21.3281 20.7812L29.4219 23.0234H23.2422L14.7656 20.7812H21.3281Z" fill="#C94747"/>
<path d="M2.73438 12.0312H14.7656V32.8125H2.73438V12.0312Z" fill="#F9F3D9"/>
<path d="M14.7656 12.0312H21.3281V20.7812H14.7656V12.0312Z" fill="#DBB471"/>
<path d="M11.4844 4.375L0.601562 12.0312H14.7656L11.4844 4.375Z" fill="#ED4C5C"/>
<path d="M15.8594 5.46875H17.5V9.84375H15.8594V5.46875Z" fill="#D0D0D0"/>
<path d="M17.5 5.46875H18.5938V10.3906H17.5V5.46875Z" fill="#94989B"/>
<path d="M11.4844 4.375L23.5156 12.0312H14.7656L11.4844 4.375Z" fill="#C94747"/>
<path d="M15.3125 4.375H18.0469V5.46875H15.3125V4.375Z" fill="#D0D0D0"/>
<path d="M18.0469 4.375H19.1406V5.46875H18.0469V4.375Z" fill="#94989B"/>
<path d="M7 15.2031H10.5V18.7031H7V15.2031Z" fill="#D6EEF0"/>
<path d="M6.5625 14.7656V19.1406H10.9375V14.7656H6.5625ZM10.5 15.2031V16.7344H8.96875V15.2031H10.5ZM8.53125 15.2031V16.7344H7V15.2031H8.53125ZM7 18.7031V17.1719H8.53125V18.7031H7ZM8.96875 18.7031V17.1719H10.5V18.7031H8.96875Z" fill="#89664C"/>
<path d="M16.7344 14.9844H19.3594V18.9219H16.7344V14.9844Z" fill="#D6EEF0"/>
<path d="M16.5156 14.7656V19.1406H19.5781V14.7656H16.5156ZM16.9531 15.2031H17.8281V16.7344H16.9531V15.2031ZM16.9531 18.7031V17.1719H17.8281V18.7031H16.9531ZM19.1406 18.7031H18.2656V17.1719H19.1406V18.7031ZM19.1406 16.7344H18.2656V15.2031H19.1406V16.7344Z" fill="#89664C"/>
<path d="M7.49219 26.8516H10.8828V32.8125H7.49219V26.8516Z" fill="#89664C"/>
<path d="M10.5 25.9766H11.375V26.8516H10.5V25.9766Z" fill="#89664C"/>
<path d="M6.61719 26.8516H7.49219V32.8125H6.61719V26.8516Z" fill="#594640"/>
<path d="M6.23438 25.9766H10.5V26.8516H6.23438V25.9766Z" fill="#DBB471"/>
<path d="M10.1719 29.75C10.3531 29.75 10.5 29.6031 10.5 29.4219C10.5 29.2407 10.3531 29.0938 10.1719 29.0938C9.99066 29.0938 9.84375 29.2407 9.84375 29.4219C9.84375 29.6031 9.99066 29.75 10.1719 29.75Z" fill="#F9F3D9"/>
<path d="M0.0546875 32.8125H28.4922V35H0.0546875V32.8125Z" fill="#83BF4F"/>
<path d="M21.8203 23.0234H26.9062V32.8125H21.8203V23.0234Z" fill="#DBB471"/>
<path d="M14.7656 23.0234H21.8203V32.8125H14.7656V23.0234Z" fill="#F9F3D9"/>
<path d="M14.7656 20.7812H2.73438L0 23.0234H23.2422L14.7656 20.7812Z" fill="#ED4C5C"/>
<path d="M15.4766 26.1406H18.9766V29.6406H15.4766V26.1406Z" fill="#D6EEF0"/>
<path d="M15.0391 25.7031V30.0781H19.4141V25.7031H15.0391ZM18.9766 26.1406V27.6719H17.4453V26.1406H18.9766ZM17.0078 26.1406V27.6719H15.4766V26.1406H17.0078ZM15.4766 29.6406V28.1094H17.0078V29.6406H15.4766ZM17.4453 29.6406V28.1094H18.9766V29.6406H17.4453Z" fill="#89664C"/>
<path d="M23.0234 25.9219H25.6484V29.8594H23.0234V25.9219Z" fill="#D6EEF0"/>
<path d="M22.8047 25.7031V30.0781H25.8672V25.7031H22.8047ZM23.2422 26.1406H24.1172V27.6719H23.2422V26.1406ZM23.2422 29.6406V28.1094H24.1172V29.6406H23.2422ZM25.4297 29.6406H24.5547V28.1094H25.4297V29.6406ZM25.4297 27.6719H24.5547V26.1406H25.4297V27.6719Z" fill="#89664C"/>
<path d="M28.3828 32.8125H34.9453V35H28.3828V32.8125Z" fill="#699635"/>
<path d="M28.5469 18.5938H30.7344V32.8125H28.5469V18.5938Z" fill="#D3976E"/>
<path d="M30.7344 18.5938H29.9141V18.8672C29.9141 20.125 29.4766 20.125 29.4766 21.3828C29.4766 22.6406 29.9141 22.6406 29.9141 23.8437C29.9141 25.1016 29.4766 25.1016 29.4766 26.3594C29.4766 27.6172 29.9141 27.6172 29.9141 28.8203C29.9141 30.0781 29.4766 30.0781 29.4766 31.2813C29.4766 32.0469 29.5859 32.375 29.6953 32.7578H30.6797C30.7344 32.8125 30.7344 18.5938 30.7344 18.5938Z" fill="#89664C"/>
<path d="M29.0937 1.58594C28.0547 3.0625 26.7969 0.382813 25.1562 2.67969C23.5156 4.97656 24.3906 7 24.8828 8.47656C25.8672 11.4844 23.8437 12.4141 25.2109 14.9297C26.5234 17.4453 24.6094 18.6484 27.125 20.0156C29.6406 21.3828 28.3828 18.4297 30.9531 20.1797C33.5234 21.9297 33.8516 18.9766 33.5781 17.8828C33.0313 15.8594 34.5078 15.3672 34.9453 13.6719C35.6563 10.6641 33.25 9.02344 34.0156 6.17969C34.6719 3.39063 32.2109 -2.95313 29.0937 1.58594Z" fill="#83BF4F"/>
<path d="M33.9063 6.23438C34.5078 4.10156 33.25 0 31.2813 0C31.2813 0 32.5938 1.75 30.7344 3.9375C28.875 6.125 32.3203 7.21875 30.7344 9.24219C29.1484 11.2656 32.2109 13.2344 31.0078 14.8203C29.5313 16.7891 27.1797 16.5156 28.5469 20.2891V20.3438C29.0938 20.0156 29.1484 19.0859 30.8438 20.2344C33.4141 21.9844 33.7422 19.0312 33.4688 17.9375C32.9219 15.9141 34.3984 15.4219 34.8359 13.7266C35.6016 10.7188 33.1953 9.07812 33.9063 6.23438Z" fill="#699635"/>
<path d="M31.6094 6.125C31.2266 6.125 31.8281 5.79688 31.8281 5.35938C31.8281 4.92188 31.2266 4.59375 31.6094 4.59375C31.9922 4.59375 32.375 4.92188 32.375 5.35938C32.375 5.79688 32.0469 6.125 31.6094 6.125Z" fill="#83BF4F"/>
<path d="M32.5937 12.7422C31.9922 12.7422 32.9219 12.25 32.9219 11.6484C32.9219 11.0469 31.9922 10.5547 32.5937 10.5547C33.1953 10.5547 33.6875 11.0469 33.6875 11.6484C33.6875 12.25 33.1953 12.7422 32.5937 12.7422Z" fill="#83BF4F"/>
<path d="M31.6094 18.3203C31.1719 18.3203 31.6094 17.9375 31.6094 17.5C31.6094 17.0625 31.1719 16.6797 31.6094 16.6797C32.0469 16.6797 32.4297 17.0625 32.4297 17.5C32.4297 17.9375 32.0469 18.3203 31.6094 18.3203Z" fill="#83BF4F"/>
<path d="M26.9609 6.61719C27.3984 6.61719 26.8516 7 26.8516 7.4375C26.8516 7.875 27.4531 8.25781 26.9609 8.25781C26.4688 8.25781 26.1406 7.875 26.1406 7.4375C26.1406 7 26.5234 6.61719 26.9609 6.61719Z" fill="#83BF4F"/>
<path d="M28.7656 3.5C29.3672 3.5 28.4922 3.99219 28.4922 4.59375C28.4922 5.19531 29.4219 5.6875 28.7656 5.6875C28.1641 5.6875 27.6719 5.19531 27.6719 4.59375C27.6719 3.99219 28.1094 3.5 28.7656 3.5Z" fill="#83BF4F"/>
<path d="M28.2734 11.8125C29.2031 11.8125 27.8906 12.5234 27.8906 13.4531C27.8906 14.3828 29.1484 15.0938 28.2734 15.0938C27.3438 15.0938 26.6328 14.3828 26.6328 13.4531C26.6328 12.5234 27.3438 11.8125 28.2734 11.8125Z" fill="#699635"/>
<path d="M28.7656 8.80469C29.2031 8.80469 28.7656 9.1875 28.7656 9.625C28.7656 10.0625 29.2031 10.4453 28.7656 10.4453C28.3281 10.4453 27.9453 10.0625 27.9453 9.625C27.9453 9.1875 28.3281 8.80469 28.7656 8.80469Z" fill="#699635"/>
<path d="M31.7734 31.1719H31.9922V32.8125H31.7734V31.1719Z" fill="#83BF4F"/>
<path d="M31.2812 29.4766V30.7344C31.2812 30.9531 31.4453 31.1719 31.7188 31.1719H32.1562V30.2969C32.1016 29.6953 31.2812 29.4766 31.2812 29.4766Z" fill="#C94747"/>
<path d="M32.5391 29.4766V30.7344C32.5391 30.9531 32.375 31.1719 32.1016 31.1719H31.6641V30.2969C31.6641 29.6953 32.5391 29.4766 32.5391 29.4766Z" fill="#ED4C5C"/>
<path d="M34.1797 29.9141H34.3984V32.8125H34.1797V29.9141Z" fill="#83BF4F"/>
<path d="M33.6875 28.1641V29.4219C33.6875 29.6406 33.8516 29.8594 34.125 29.8594H34.5625V28.9844C34.5078 28.4375 33.6875 28.1641 33.6875 28.1641Z" fill="#C94747"/>
<path d="M34.9453 28.1641V29.4219C34.9453 29.6406 34.7812 29.8594 34.5078 29.8594H34.0703V28.9844C34.0703 28.4375 34.9453 28.1641 34.9453 28.1641Z" fill="#ED4C5C"/>
<path d="M32.1016 27.4531V28.7109C32.1016 28.9297 32.2656 29.1484 32.5391 29.1484H32.9766V28.2734C32.9766 27.7266 32.1016 27.4531 32.1016 27.4531Z" fill="#F2B200"/>
<path d="M33.4141 27.4531V28.7109C33.4141 28.9297 33.25 29.1484 32.9766 29.1484H32.5391V28.2734C32.5391 27.7266 33.4141 27.4531 33.4141 27.4531Z" fill="#FFCE31"/>
<path d="M32.6484 29.2031H32.8672V32.8125H32.6484V29.2031Z" fill="#83BF4F"/>
<path d="M30.3516 28.1094V29.3672C30.3516 29.5859 30.5703 29.8047 30.7891 29.8047H31.1719V28.9844C31.1719 28.3281 30.3516 28.1094 30.3516 28.1094Z" fill="#F2B200"/>
<path d="M31.6094 28.1094V29.3672C31.6094 29.5859 31.4453 29.8047 31.1719 29.8047H30.7344V28.9844C30.7344 28.3281 31.6094 28.1094 31.6094 28.1094Z" fill="#FFCE31"/>
<path d="M30.8438 29.8047H31.0625V32.8125H30.8438V29.8047Z" fill="#83BF4F"/>
<path d="M26.7969 31.1719H27.0156V32.8125H26.7969V31.1719Z" fill="#83BF4F"/>
<path d="M26.25 29.4766V30.7344C26.25 30.9531 26.4141 31.1719 26.6875 31.1719H27.125V30.2969C27.125 29.6953 26.25 29.4766 26.25 29.4766Z" fill="#C94747"/>
<path d="M27.5625 29.4766V30.7344C27.5625 30.9531 27.3984 31.1719 27.125 31.1719H26.6875V30.2969C26.6875 29.6953 27.5625 29.4766 27.5625 29.4766Z" fill="#ED4C5C"/>
<path d="M29.2031 29.9141H29.4219V32.8125H29.2031V29.9141Z" fill="#83BF4F"/>
<path d="M28.6562 28.1641V29.4219C28.6562 29.6406 28.8203 29.8594 29.0938 29.8594H29.5312V28.9844C29.5312 28.4375 28.6562 28.1641 28.6562 28.1641Z" fill="#C94747"/>
<path d="M29.9688 28.1641V29.4219C29.9688 29.6406 29.8047 29.8594 29.5312 29.8594H29.0938V28.9844C29.0938 28.4375 29.9688 28.1641 29.9688 28.1641Z" fill="#ED4C5C"/>
<path d="M27.125 27.4531V28.7109C27.125 28.9297 27.2891 29.1484 27.5625 29.1484H28V28.2734C28 27.7266 27.125 27.4531 27.125 27.4531Z" fill="#F2B200"/>
<path d="M28.3828 27.4531V28.7109C28.3828 28.9297 28.2187 29.1484 27.9453 29.1484H27.5078V28.2734C27.5625 27.7266 28.3828 27.4531 28.3828 27.4531Z" fill="#FFCE31"/>
<path d="M27.6719 29.2031H27.8906V32.8125H27.6719V29.2031Z" fill="#83BF4F"/>
<path d="M25.3203 28.1094V29.3672C25.3203 29.5859 25.4844 29.8047 25.7578 29.8047H26.1953V28.9844C26.1953 28.3281 25.3203 28.1094 25.3203 28.1094Z" fill="#C94747"/>
<path d="M26.6328 28.1094V29.3672C26.6328 29.5859 26.4688 29.8047 26.1953 29.8047H25.7578V28.9844C25.7578 28.3281 26.6328 28.1094 26.6328 28.1094Z" fill="#ED4C5C"/>
<path d="M25.8672 29.8047H26.0859V32.8125H25.8672V29.8047Z" fill="#83BF4F"/>
</g>
<defs>
<clipPath id="clip0">
<rect width="35" height="35" fill="white"/>
</clipPath>
</defs>
</svg>
