<svg width="19" height="19" viewBox="0 0 19 19" fill="none" xmlns="http://www.w3.org/2000/svg">
<path fill-rule="evenodd" clip-rule="evenodd" d="M12.3075 0.807503C12.3656 0.749299 12.4345 0.703121 12.5105 0.671613C12.5864 0.640105 12.6678 0.623886 12.75 0.623886C12.8322 0.623886 12.9136 0.640105 12.9895 0.671613C13.0655 0.703121 13.1344 0.749299 13.1925 0.807503L18.1925 5.8075C18.2507 5.86556 18.2969 5.93453 18.3284 6.01046C18.3599 6.08639 18.3761 6.16779 18.3761 6.25C18.3761 6.33221 18.3599 6.41361 18.3284 6.48955C18.2969 6.56548 18.2507 6.63445 18.1925 6.6925L15.815 9.07L14.7788 13.2113C14.7 13.5266 14.5405 13.816 14.3161 14.0512C14.0917 14.2863 13.8101 14.4591 13.4988 14.5525L0.567505 18.4325L4.4475 5.5C4.54103 5.18908 4.71369 4.90777 4.94858 4.68361C5.18347 4.45946 5.47255 4.30014 5.7875 4.22125L9.92875 3.18625L12.3075 0.807503ZM10.0575 4.4425L6.09125 5.43375C5.98597 5.46003 5.88934 5.51327 5.81088 5.58823C5.73241 5.66318 5.67482 5.75728 5.64375 5.86125L2.43125 16.5675L13.14 13.355C13.2434 13.3237 13.3368 13.2661 13.4113 13.1879C13.4858 13.1097 13.5388 13.0135 13.565 12.9088L14.5575 8.94125L10.0575 4.44125V4.4425Z" fill="#6CBFFC"/>
<path fill-rule="evenodd" clip-rule="evenodd" d="M2.54 16.535L8.99999 11.25C9.24722 11.25 9.4889 11.1767 9.69446 11.0393C9.90002 10.902 10.0602 10.7068 10.1548 10.4784C10.2495 10.2499 10.2742 9.99861 10.226 9.75614C10.1777 9.51366 10.0587 9.29093 9.88388 9.11612C9.70906 8.9413 9.48633 8.82225 9.24386 8.77402C9.00138 8.72579 8.75005 8.75054 8.52164 8.84515C8.29323 8.93976 8.09801 9.09998 7.96066 9.30554C7.82331 9.5111 7.74999 9.75277 7.74999 10L2.465 16.46L2.4325 16.5675L2.54 16.535Z" fill="#6CBFFC"/>
</svg>
